<svg width="3701" height="2542" viewBox="0 0 3701 2542" fill="none" xmlns="http://www.w3.org/2000/svg">
<g opacity="0.66" filter="url(#filter0_f)">
<path d="M305 948.958C305 593.31 593.31 305 948.958 305H2752.04C3107.69 305 3396 593.31 3396 948.958V1592.92C3396 1948.57 3107.69 2236.87 2752.04 2236.87H948.958C593.31 2236.87 305 1948.57 305 1592.92V948.958Z" fill="url(#paint0_radial)" fill-opacity="0.26"/>
<path d="M305 948.958C305 593.31 593.31 305 948.958 305H2752.04C3107.69 305 3396 593.31 3396 948.958V1592.92C3396 1948.57 3107.69 2236.87 2752.04 2236.87H948.958C593.31 2236.87 305 1948.57 305 1592.92V948.958Z" fill="url(#paint1_linear)" fill-opacity="0.3"/>
</g>
<defs>
<filter id="filter0_f" x="0.193054" y="0.193054" width="3700.61" height="2541.49" filterUnits="userSpaceOnUse" color-interpolation-filters="sRGB">
<feFlood flood-opacity="0" result="BackgroundImageFix"/>
<feBlend mode="normal" in="SourceGraphic" in2="BackgroundImageFix" result="shape"/>
<feGaussianBlur stdDeviation="152.403" result="effect1_foregroundBlur"/>
</filter>
<radialGradient id="paint0_radial" cx="0" cy="0" r="1" gradientUnits="userSpaceOnUse" gradientTransform="translate(305 305) rotate(32.0054) scale(3645.05 5920.02)">
<stop stop-color="#AE6AB4"/>
<stop offset="0.913878" stop-color="#B06AB3" stop-opacity="0"/>
</radialGradient>
<linearGradient id="paint1_linear" x1="527.166" y1="433.792" x2="1850.5" y2="2236.87" gradientUnits="userSpaceOnUse">
<stop stop-color="#4568DC"/>
<stop offset="1" stop-color="#4568DC" stop-opacity="0"/>
</linearGradient>
</defs>
</svg>
