<svg width="1001" height="996" viewBox="0 0 1001 996" fill="none" xmlns="http://www.w3.org/2000/svg">
<path d="M417.85 180.7L418.1 191.3C387.775 195.675 354.45 204.525 342.325 235.025C332.65 258.2 331.425 294.85 332.2 322.525C333.05 343.45 335.825 380.2 336.625 400.025L382.75 399.325C381.275 347.4 374.85 289.075 395.25 261.3C407.525 244.625 430.675 235.05 467.025 229.075C467.025 187.475 467.325 140.275 467.525 98.675C467.525 94.55 466.825 93.85 464.85 92.325L418.025 58C416.775 92.2 416.725 135.3 417.85 180.7Z" fill="#B53A25"/>
<path d="M257.75 855.725C249.475 867.225 228.85 879.925 217.75 888.225C206.028 896.754 193.103 903.495 179.4 908.225C166.421 912.701 153.018 915.834 139.4 917.575C126.607 919.217 113.723 920.052 100.825 920.075C94.7251 920.075 85.8251 920.075 78.6001 919.8C89.9251 937.3 134.15 955.575 134.15 955.575C136.714 956.838 139.542 957.472 142.4 957.425C161 957.425 173.6 958.5 204.25 952.425C240.275 945.35 281.575 925.975 303.15 895.175L304.05 893.925C285.475 883.3 272.225 870.225 257.75 855.725Z" fill="#B53A25"/>
<path d="M336 697L331.5 587.2C428.5 586.6 572.725 586.075 686.8 586.55C686.8 598.7 686.8 606.375 687 618.375C687 618.375 565.45 618.375 578.85 618.75C592.25 619.125 449.2 618.325 383.85 618.75C379.625 619.6 380.55 623.6 380.625 625.975L383.125 745.325C383.21 760.287 386.491 775.059 392.75 788.65C385.25 785.425 378 785.575 371.325 779.725C371.35 779.625 338.625 754.025 336 697Z" fill="#B53A25"/>
<path d="M467.175 836.65C465.35 835.35 436.325 814.4 423.125 799.55C424.075 843.1 426.1 879.275 427.475 922.575C399.1 923.275 330.975 905.55 305.8 900.875C328.403 922.494 355.111 939.362 384.344 950.484C413.577 961.605 444.743 966.753 476 965.625C474.8 928.125 473.325 890.5 472.625 852.95C472.45 845.825 472.075 839.775 467.175 836.65Z" fill="#B53A25"/>
<path d="M1000.77 156.45C1000.55 138.45 999.075 112.55 999.375 94.9999L950.1 56.575C950.3 96.95 954.275 159.55 952.725 180.275C952.725 180.275 923.875 178.475 902 191.475C887.275 200.225 867.225 229.75 863.175 253.45C860.9 266.775 856.275 311.9 856.725 331.1C857.075 387.275 860.45 456.3 921.125 474.625C919.676 472.491 918.405 470.242 917.325 467.9C913.575 433.125 908.1 379.475 908.4 344.55C910.575 276.625 920.9 230.6 999.675 230C1001.9 205.5 999.95 181.225 1000.77 156.45Z" fill="#B53A25"/>
<path d="M1000.1 504.6C997.6 505.95 953.125 478.025 951.05 477.775C952 486.725 950.575 498.525 943.675 505.05C943.012 505.957 942.172 506.72 941.205 507.291C940.238 507.863 939.164 508.232 938.05 508.375C900.1 515.45 861.2 548.525 861.675 589.4C861.925 609.975 860.975 629.275 861.125 650.675C861.3 678.175 860.125 729.4 872 752.875C880.675 770 903.325 783.2 913.325 784.85C913.525 784.85 909.125 703.375 910.95 637.525C912.45 583.975 940.95 564.7 995.35 542.7C1003.5 532.675 1000.53 515.9 1000.1 504.6Z" fill="#B53A25"/>
<path d="M831.25 899C845.6 905.7 903.75 916.65 925.725 911.15C935.1 908.8 945.725 922.7 946.85 915.8C947.725 875.8 947.475 830.95 947.2 791.975C949.325 792.275 986.35 822.175 990.675 825.425C992.725 828.475 996.5 831.475 996.575 834.575C996.05 872.925 1000.72 920.175 995.75 958.225C995.161 959.766 994.225 961.152 993.016 962.274C991.807 963.397 990.356 964.227 988.775 964.7C940.975 968.875 883.1 940.35 849.2 915.925C842.494 911.102 836.458 905.411 831.25 899V899Z" fill="#B53A25"/>
<path d="M799.825 878C792.975 872.425 784.075 859.175 775.575 850C733.55 894.075 659.35 926.5 597.675 920.95L641.6 954.95C703.125 964.95 786.85 943.775 827.15 894.95C817.595 890.054 808.456 884.386 799.825 878V878Z" fill="#B53A25"/>
<path d="M412.025 56.55C416.675 56.8 422.3 58.375 422.025 65.425C420.575 105.425 420.525 146.875 421.475 186.725C421.498 187.97 421.083 189.183 420.301 190.152C419.519 191.121 418.421 191.784 417.2 192.025C322.675 210.325 335.025 279.8 335.35 357.45C335.35 368.775 335.75 384.275 336.45 394.725C336.527 395.899 337.053 396.998 337.919 397.794C338.785 398.59 339.924 399.022 341.1 399C369.625 398.55 536.1 399.4 623.275 398.875C639.675 398.525 655.1 398.4 671.475 398.325C678.1 398.325 680.525 395.975 680.425 389.575C677.925 304.95 695.725 224.25 597.925 190.575C596.55 190.099 595.36 189.203 594.521 188.015C593.682 186.826 593.238 185.405 593.25 183.95C593.775 142.175 592.55 101.025 592.475 59.275C592.473 57.9679 592.955 56.7062 593.827 55.7325C594.699 54.7589 595.9 54.1418 597.2 54C661.65 47.025 732.325 80.1 766.85 132.825C771.525 139.95 775.475 140.825 780.65 132.825C808.5 88.75 843.5 73 885.075 60.1C905.425 53.825 927.575 57.45 943.125 57.6C950.625 57.6 953.45 59.25 953.125 67.15C952.75 83.175 953.325 99.2 953.525 115.225C953.525 143.65 953.375 169.2 953.225 183.175C953.197 184.684 952.603 186.128 951.562 187.221C950.52 188.313 949.106 188.975 947.6 189.075C875.5 193.925 863.875 239.45 861.125 303.325C861.55 378.85 854.15 467 949.075 479.425C950.125 479.573 951.092 480.079 951.812 480.858C952.532 481.637 952.96 482.641 953.025 483.7C953.175 486.85 953.775 491.975 953.9 495.125C954.125 500.5 953.05 503.425 947.875 504.95C936.925 508.175 909.275 516.425 897.875 526.9C881.575 541.9 863.05 568.575 863.625 596.3C862.575 634.9 862.375 673.525 862.525 712.15C862.525 712.15 868.625 782.975 941.375 792.15C947.375 792.9 949.375 794.2 949.425 801.4C949.675 839.775 950.775 877.2 948.425 916.925C948.275 919.425 946.625 923.275 943.425 923.775C936.985 924.552 930.479 924.619 924.025 923.975C873.275 921.475 832.45 904.7 809.575 887.075C801.775 881.075 786.725 865.75 778.85 857.075C778.265 856.416 777.55 855.885 776.75 855.517C775.95 855.148 775.082 854.949 774.201 854.933C773.32 854.916 772.445 855.083 771.632 855.421C770.818 855.76 770.084 856.263 769.475 856.9C720.8 907.05 669.475 931.75 596.975 921.125C596.425 881.125 595.275 843.05 595.225 802.675C595.225 796.975 597.725 794.3 601.45 792.8C619.375 785.825 674.75 789.25 681.975 716.425C683.3 672.75 681.525 636.775 681.975 593C681.65 591.975 679.7 590.025 678.275 590.625C564.4 590.1 431.65 590.425 338.775 591.3C335 591.3 333.1 592.275 333.125 596.7C333.3 621.925 335.4 640.925 335.925 666.175C337.475 692.325 339.35 715.55 349.95 741.3C360.3 766.3 379.95 784.75 414.175 793.075C421.05 794.75 424.775 798.65 425.15 806.55C427 844.05 427.375 886.75 428.55 924.3C395.8 924.95 363.325 924.625 331.525 913C299.325 901.25 283 884.025 261.3 862.3C260.481 861.482 259.491 860.857 258.401 860.469C257.311 860.081 256.148 859.941 254.997 860.058C253.845 860.176 252.735 860.548 251.745 861.147C250.756 861.747 249.912 862.559 249.275 863.525C209.275 923.85 139.1 924.225 84.9499 923.725C77.2749 923.725 76.4249 920.875 76.1249 913.2C74.5249 874.45 74.0749 835.275 73.3249 796.4C73.2553 795.537 73.3664 794.67 73.6511 793.852C73.9358 793.035 74.3878 792.286 74.9783 791.653C75.5688 791.02 76.2848 790.517 77.0806 790.177C77.8763 789.836 78.7344 789.665 79.5999 789.675C123.5 787.775 157.55 758 158.125 724.35C158.375 709.675 159.05 690.325 159.025 675.65C159.025 597.65 163.35 539.575 73.0249 508.15C71.5499 507.625 73.0249 493.4 72.5749 486.975C72.5421 486.611 72.6435 486.247 72.8598 485.953C73.0762 485.658 73.3927 485.453 73.7499 485.375C117.35 475.8 151.125 435.025 155.8 391.425C153.725 316.425 172.15 207.55 76.2499 191.425C73.8771 191.057 71.6996 189.895 70.0736 188.128C68.4477 186.361 67.4697 184.095 67.2999 181.7C65.9999 152.525 65.9999 97.5 66.4499 66C66.6499 52.55 71.0999 51.425 82.4499 51.225C98.9321 50.7582 115.426 51.5019 131.8 53.45C170.35 58.45 215.4 94.85 237.55 135.375C240.925 141.575 244.25 140.1 246.375 134.85C267.625 87.225 321.675 59.85 370.575 57.125L412.025 56.55Z" fill="#B8CDB4"/>
<path d="M783.925 66.7H758.45V487.175H783.925V66.7Z" fill="#A88771"/>
<path d="M885.65 168.225C874.968 168.268 864.707 164.066 857.124 156.544C849.54 149.021 845.256 138.794 845.212 128.113C845.169 117.431 849.371 107.17 856.894 99.5862C864.416 92.0027 874.643 87.7181 885.325 87.675H885.675C896.307 87.6748 906.507 91.8811 914.048 99.3755C921.589 106.87 925.859 117.043 925.925 127.675V127.675C926.005 138.366 921.836 148.651 914.335 156.269C906.835 163.887 896.616 168.214 885.925 168.3L885.65 168.225ZM885.65 113.225H885.5C882.576 113.255 879.726 114.152 877.311 115.8C874.895 117.449 873.022 119.776 871.928 122.488C870.834 125.2 870.568 128.176 871.164 131.039C871.76 133.902 873.19 136.524 875.275 138.575C876.636 139.929 878.251 141.002 880.027 141.731C881.803 142.46 883.705 142.832 885.625 142.825H885.775C887.723 142.805 889.648 142.402 891.439 141.637C893.23 140.871 894.853 139.76 896.214 138.367C897.575 136.973 898.648 135.325 899.371 133.516C900.093 131.707 900.451 129.773 900.425 127.825V127.825C900.392 123.926 898.822 120.197 896.055 117.449C893.288 114.702 889.549 113.157 885.65 113.15V113.225Z" fill="#A88771"/>
<path d="M784.65 302.325L759.225 301.025C759.525 295.225 767.4 159.025 850.15 131.025L858.3 155.15C824.55 166.575 806.375 205 797.1 235.15C790.522 257.023 786.347 279.548 784.65 302.325V302.325Z" fill="#A88771"/>
<path d="M781.895 509.812L756.42 509.866L757.315 937.19L782.79 937.137L781.895 509.812Z" fill="#A88771"/>
<path d="M883.625 890.675H883.25C872.568 890.629 862.343 886.341 854.822 878.755C847.302 871.169 843.103 860.907 843.15 850.225C843.196 839.543 847.484 829.318 855.07 821.798C862.656 814.277 872.918 810.079 883.6 810.125H883.95C894.638 810.217 904.853 814.547 912.353 822.164C919.852 829.78 924.023 840.061 923.95 850.75C923.877 861.38 919.605 871.549 912.066 879.042C904.526 886.535 894.33 890.744 883.7 890.75L883.625 890.675ZM883.625 835.675C880.709 835.676 877.858 836.538 875.431 838.154C873.003 839.769 871.107 842.065 869.98 844.755C868.853 847.444 868.545 850.407 869.096 853.27C869.646 856.133 871.031 858.771 873.075 860.85C874.432 862.243 876.053 863.351 877.842 864.111C879.632 864.87 881.555 865.266 883.5 865.275C885.448 865.327 887.386 864.976 889.193 864.244C890.999 863.513 892.636 862.417 894 861.025C895.418 859.662 896.547 858.028 897.32 856.22C898.093 854.412 898.495 852.467 898.5 850.5V850.5C898.523 848.551 898.162 846.617 897.436 844.808C896.711 842.998 895.636 841.35 894.273 839.957C892.91 838.564 891.285 837.453 889.493 836.688C887.7 835.923 885.774 835.52 883.825 835.5L883.625 835.675Z" fill="#A88771"/>
<path d="M770.325 995.175H769.95C759.268 995.129 749.043 990.841 741.523 983.255C734.002 975.669 729.804 965.407 729.85 954.725C729.896 944.043 734.184 933.818 741.77 926.298C749.356 918.777 759.618 914.579 770.3 914.625H770.65C775.942 914.664 781.175 915.746 786.049 917.807C790.924 919.869 795.344 922.87 799.059 926.64C802.773 930.411 805.709 934.875 807.697 939.78C809.686 944.684 810.689 949.933 810.65 955.225V955.225C810.564 965.851 806.288 976.013 798.751 983.503C791.214 990.993 781.026 995.206 770.4 995.225L770.325 995.175ZM770.325 940.175C766.4 940.158 762.629 941.702 759.841 944.466C757.054 947.229 755.479 950.987 755.462 954.913C755.446 958.838 756.989 962.609 759.753 965.396C762.517 968.183 766.275 969.758 770.2 969.775C772.148 969.822 774.084 969.469 775.89 968.738C777.696 968.007 779.333 966.914 780.7 965.525C782.088 964.165 783.194 962.543 783.953 960.754C784.712 958.965 785.111 957.044 785.125 955.1V955.1C785.151 953.15 784.792 951.214 784.068 949.404C783.344 947.593 782.269 945.943 780.906 944.55C779.542 943.156 777.916 942.045 776.122 941.281C774.327 940.518 772.4 940.116 770.45 940.1L770.325 940.175Z" fill="#A88771"/>
<path d="M770.325 81.375H769.95C764.656 81.3423 759.42 80.2655 754.543 78.2062C749.665 76.1469 745.242 73.1456 741.526 69.3742C737.811 65.6028 734.876 61.1354 732.889 56.2279C730.903 51.3203 729.904 46.0691 729.95 40.775C730.042 30.1473 734.324 19.9851 741.865 12.4956C749.406 5.00618 759.597 0.79438 770.225 0.775024H770.575C781.264 0.86749 791.479 5.19721 798.978 12.8138C806.477 20.4303 810.648 30.7114 810.575 41.4V41.4C810.502 52.0296 806.231 62.1994 798.691 69.6923C791.151 77.1853 780.955 81.3937 770.325 81.4V81.375ZM770.325 26.375C767.409 26.3759 764.558 27.2382 762.131 28.8536C759.703 30.469 757.807 32.7655 756.68 35.4548C755.553 38.1442 755.245 41.1065 755.796 43.97C756.347 46.8335 757.731 49.4705 759.775 51.55C761.132 52.9425 762.753 54.0509 764.543 54.8106C766.333 55.5704 768.256 55.9662 770.2 55.975C772.147 56.0328 774.085 55.6873 775.892 54.9602C777.699 54.2331 779.336 53.1402 780.7 51.75C782.09 50.3858 783.196 48.7602 783.956 46.9668C784.715 45.1734 785.113 43.2475 785.125 41.3C785.148 39.3511 784.787 37.4167 784.061 35.6075C783.336 33.7984 782.261 32.1501 780.898 30.7568C779.535 29.3636 777.911 28.2528 776.118 27.4881C774.325 26.7233 772.399 26.3196 770.45 26.3L770.325 26.375Z" fill="#A88771"/>
<path d="M849.1 850.925C766.475 822.975 756.775 689.775 756.4 684.125L781.825 682.45C781.825 683.65 790.75 804.3 857.25 826.8L849.1 850.925Z" fill="#A88771"/>
<path d="M460.525 709.55H460.175C454.886 709.529 449.653 708.466 444.775 706.422C439.896 704.378 435.468 701.394 431.744 697.639C428.019 693.884 425.07 689.432 423.066 684.537C421.062 679.643 420.041 674.401 420.062 669.112C420.084 663.824 421.147 658.59 423.19 653.712C425.234 648.834 428.219 644.406 431.974 640.681C435.728 636.957 440.18 634.008 445.075 632.004C449.969 629.999 455.211 628.979 460.5 629H460.85C471.538 629.092 481.753 633.422 489.253 641.039C496.752 648.655 500.923 658.936 500.85 669.625V669.625C500.777 680.255 496.505 690.424 488.966 697.917C481.426 705.41 471.23 709.619 460.6 709.625L460.525 709.55ZM460.525 654.55C456.624 654.55 452.881 656.093 450.113 658.842C447.345 661.591 445.776 665.324 445.75 669.225C445.72 671.174 446.076 673.109 446.798 674.919C447.519 676.73 448.591 678.38 449.953 679.774C451.315 681.168 452.939 682.279 454.732 683.043C456.525 683.807 458.451 684.209 460.4 684.225C462.348 684.272 464.284 683.919 466.09 683.188C467.896 682.457 469.533 681.364 470.9 679.975C472.292 678.618 473.401 676.997 474.16 675.207C474.92 673.418 475.316 671.494 475.325 669.55C475.348 667.601 474.987 665.667 474.261 663.858C473.536 662.048 472.461 660.4 471.098 659.007C469.735 657.614 468.11 656.503 466.318 655.738C464.525 654.973 462.599 654.57 460.65 654.55H460.525Z" fill="#A88771"/>
<path d="M460.525 533.875H460.175C454.881 533.842 449.645 532.766 444.767 530.706C439.89 528.647 435.467 525.646 431.751 521.874C428.036 518.103 425.1 513.635 423.114 508.728C421.128 503.82 420.129 498.569 420.175 493.275C420.254 482.648 424.528 472.481 432.066 464.99C439.605 457.498 449.797 453.288 460.425 453.275H460.775C466.067 453.314 471.3 454.396 476.174 456.457C481.049 458.519 485.469 461.52 489.184 465.29C492.898 469.061 495.833 473.525 497.822 478.43C499.811 483.334 500.814 488.583 500.775 493.875V493.875C500.702 504.505 496.43 514.674 488.891 522.167C481.351 529.66 471.155 533.869 460.525 533.875ZM460.525 478.875C456.626 478.881 452.886 480.426 450.12 483.174C447.353 485.922 445.783 489.651 445.75 493.55C445.718 495.497 446.075 497.431 446.801 499.239C447.526 501.046 448.605 502.69 449.975 504.075C452.729 506.869 456.477 508.46 460.4 508.5C462.348 508.553 464.287 508.203 466.094 507.472C467.901 506.74 469.537 505.643 470.9 504.25C472.292 502.893 473.401 501.272 474.161 499.482C474.92 497.693 475.316 495.769 475.325 493.825V493.825C475.348 491.876 474.987 489.942 474.261 488.133C473.536 486.323 472.461 484.675 471.098 483.282C469.735 481.889 468.11 480.778 466.318 480.013C464.525 479.248 462.599 478.845 460.65 478.825L460.525 478.875Z" fill="#A88771"/>
<path d="M761.725 479.35H489.2V504.825H761.725V479.35Z" fill="#A88771"/>
<path d="M492.35 683.125C487 683.127 481.661 682.642 476.4 681.675L481.025 656.675C511.025 662.2 543.675 645.175 564.1 613.25C572.5 600.175 578.95 585.075 585.775 569.075C591.1 556.575 596.575 543.825 603.1 531.85C623.45 494.575 651.5 476.125 678.1 482.475L672.2 507.25C654.7 503.1 636.05 524.475 625.375 544.05C619.425 554.95 614.4 566.55 609.1 579.05C602.15 595.3 594.975 612.1 585.45 626.975C562.925 662.275 527.625 683.125 492.35 683.125Z" fill="#A88771"/>
<path d="M751.55 381.175L760.95 387.3C763.9 400.75 766.75 414.8 768.775 426.075C772.292 425.639 775.831 425.406 779.375 425.375L774.375 418.425C773.5 411.7 772 406.65 768.875 388.425C768.457 385.805 768.331 383.147 768.5 380.5C769.45 363.25 770.35 345.975 771.55 328.725C773.075 306.7 775.2 284.725 776.55 262.7C777.432 250.413 774.832 238.127 769.05 227.25C765.25 220.275 760.875 213.175 751.55 213.75C742.225 214.325 738.625 221.775 735.325 229.1C733.95 232.15 732.325 235.1 730.8 238.075L728.075 237.75C727 230.8 723.7 187.75 721.7 173.225C718.25 148.225 713.325 123.7 689.775 108.225C689.775 108.225 673.275 100.2 667.025 111.85C664.975 115.7 661.45 119.35 660.775 123.5C659.841 131.466 659.356 139.479 659.325 147.5C659.325 149.35 659.325 151.2 659.2 153.025L657.375 153.35C654.625 145.85 651.75 138.35 649.175 130.85C645.043 118.591 637.94 107.545 628.5 98.7C621.978 92.4715 614.254 87.6396 605.8 84.5C588.75 78.6 573.575 91.05 574.675 108.675C574.675 110.375 575 112.05 575.45 116.55C572.887 114.501 570.152 112.677 567.275 111.1C560.38 107.91 553.271 105.204 546 103C529.775 98.75 515.825 110.95 518.975 126.875C520.279 132.661 523.032 138.02 526.975 142.45C532.675 148.925 539.8 154.2 546.325 159.95C547.925 161.375 549.5 162.85 551.55 164.725C546.458 165.847 541.447 167.309 536.55 169.1C524.25 174.6 521.875 188.15 531.9 196.825C536.023 200.375 540.843 203.023 546.05 204.6C556.525 207.65 567.3 209.8 578.025 211.95C591.775 214.675 605.525 216.725 619.35 219.7C624.675 220.85 630.625 222.2 633.575 228.425C627.575 232.35 621.525 229.9 615.625 229.975C606.208 229.756 596.787 230.165 587.425 231.2C579.325 232.4 572.425 236.75 570.375 245.5C568.8 252.7 573.75 260.3 582.2 264.875C583.258 265.473 584.371 265.967 585.525 266.35C599.45 270.575 613.25 275.25 627.35 278.85C641.45 282.45 655.425 284.5 669.425 287.55C675.55 288.9 681.6 290.9 685.45 297.15C682.189 298.001 678.803 298.263 675.45 297.925C668.2 297.175 660.95 295.425 653.7 295.425C641.875 295.6 636.025 306.05 642.6 315.425C645.962 319.998 650.414 323.659 655.55 326.075C665.464 330.69 675.699 334.584 686.175 337.725C712.65 345.75 734.675 359.7 751.55 381.175Z" fill="#B53A25"/>
<path d="M747.725 360.5C746.175 357.807 745.029 354.901 744.325 351.875C744.246 351.637 744.137 351.41 744 351.2C741.056 349.239 738.226 347.11 735.525 344.825C731.519 341.232 727.035 338.212 722.2 335.85C710.382 330.64 698.24 326.197 685.85 322.55L685.275 322.4C684.574 322.327 683.897 322.101 683.292 321.738C682.687 321.375 682.17 320.885 681.775 320.3C681.448 319.595 681.279 318.827 681.279 318.05C681.279 317.273 681.448 316.505 681.775 315.8C681.946 315.306 682.302 314.897 682.768 314.659C683.234 314.422 683.774 314.373 684.275 314.525L690 316.05C704.325 319.825 719 323.725 731.975 332.3C733.85 333.35 735.8 334.475 737.85 335.725C731.8 322.75 725.725 310.725 719.4 299.2C716.558 294.284 712.644 290.071 707.95 286.875C697.312 278.847 685.039 273.257 672 270.5C654.675 267.15 637.375 263.7 620.625 260.5C619.95 260.35 619.275 260.25 618.575 260.15C615.707 259.976 612.953 258.968 610.65 257.25C610.446 257.175 610.253 257.075 610.075 256.95C609.751 256.68 609.526 256.31 609.436 255.898C609.345 255.486 609.394 255.056 609.575 254.675C609.803 254.189 610.204 253.805 610.7 253.6V253.6L609.3 253.2L611.1 253.4C613.192 252.553 615.51 252.438 617.675 253.075H618.15C621.55 253.725 624.975 254.325 628.4 254.925C633.65 255.85 639.075 256.8 644.4 257.925C648.225 258.725 652.15 259.475 655.925 260.2C672.275 263.275 689.1 266.45 704.45 276.05L698.7 268.4C686 251.575 672.875 234.15 658.5 218.2C652.959 212.129 646.216 207.276 638.7 203.95C622.175 196.45 603.325 192.225 579.325 190.925H577.8C569.083 190.853 560.433 189.393 552.175 186.6C551.772 186.453 551.429 186.178 551.199 185.816C550.968 185.455 550.863 185.027 550.9 184.6C550.958 184.171 551.152 183.772 551.454 183.462C551.755 183.152 552.148 182.946 552.575 182.875C557.279 182.242 562.052 182.344 566.725 183.175C568.991 183.54 571.28 183.741 573.575 183.775C582.883 183.75 592.182 184.385 601.4 185.675C613.673 187.618 625.713 190.827 637.325 195.25L637.1 195.05L636.65 194.625C615.99 174.938 593.581 157.173 569.7 141.55C568.35 140.675 566.9 139.9 565.4 139.05C560.977 137.096 557.136 134.03 554.25 130.15C554.049 130.032 553.878 129.869 553.75 129.675C553.55 129.415 553.423 129.106 553.384 128.781C553.344 128.455 553.393 128.125 553.525 127.825V127.6C553.64 127.348 553.805 127.121 554.01 126.935C554.214 126.748 554.455 126.605 554.717 126.514C554.978 126.423 555.256 126.385 555.532 126.405C555.809 126.424 556.078 126.499 556.325 126.625C558.255 126.868 560.08 127.637 561.6 128.85L562.375 129.35C582.586 141.645 601.954 155.275 620.35 170.15C629.675 177.875 638.55 186.25 648.425 196C647.95 194.75 647.475 193.5 647.025 192.275C643.9 183.95 640.975 176.1 637.95 168.4C635.09 161.636 631.748 155.086 627.95 148.8C625.7 144.825 623.35 140.7 621.275 136.5C617.664 129.516 613.57 122.791 609.025 116.375C607.325 113.875 605.575 111.375 603.775 108.475C603.541 108.122 603.433 107.7 603.469 107.278C603.506 106.855 603.684 106.458 603.975 106.15C604.306 105.805 604.75 105.592 605.225 105.55L604.55 104.725L605.575 105.525C605.826 105.533 606.073 105.592 606.3 105.7C611.129 107.63 615.206 111.067 617.925 115.5C620.05 118.575 622.05 121.675 624 124.825L624.9 126.35C630.078 134.976 634.623 143.966 638.5 153.25C638.975 154.4 639.425 155.55 639.875 156.7C641.842 160.95 643.733 165.233 645.55 169.55C645.8 170 646.025 170.45 646.3 170.875C647.612 173.195 648.668 175.651 649.45 178.2C650.31 181.764 652.105 185.035 654.65 187.675C655 187.994 655.222 188.429 655.275 188.9C655.516 190.978 655.917 193.034 656.475 195.05C659.55 201.725 662.875 208.3 666.475 214.65C668.525 217.475 670.725 220.25 672.95 223.075C674.425 224.95 675.9 226.825 677.325 228.7C682.325 235.4 687.925 242.025 693.25 248.4L698.5 254.725C698.949 255.307 699.319 255.946 699.6 256.625C699.728 256.964 699.887 257.29 700.075 257.6C699.973 256.044 699.645 254.511 699.1 253.05C698.627 251.651 698.284 250.212 698.075 248.75C696.989 236.03 696.764 223.251 697.4 210.5V205.75C697.925 179.725 694.1 157.35 685.725 137.35L685.425 136.75C684.88 135.969 684.587 135.04 684.587 134.087C684.587 133.135 684.88 132.206 685.425 131.425C685.64 131.14 685.927 130.918 686.257 130.782C686.587 130.646 686.947 130.6 687.3 130.65C688.724 130.921 690.04 131.598 691.087 132.601C692.134 133.604 692.868 134.889 693.2 136.3C699.75 152.875 705.7 169.275 705.45 187.4C705.45 191.45 705.45 195.5 705.45 199.575C705.3 213.225 705.15 227.325 705.45 241.175C705.351 255.194 709.424 268.927 717.15 280.625C722.609 288.419 727.25 296.755 731 305.5C731.406 306.42 731.964 307.265 732.65 308C733.2 308.575 733.525 308.625 733.725 308.575C733.739 308.367 733.739 308.158 733.725 307.95C734.265 300.274 735.837 292.706 738.4 285.45C742.359 273.594 745.393 261.45 747.475 249.125C747.475 248.75 747.6 248.35 747.65 247.95C747.677 246.572 747.988 245.214 748.565 243.962C749.141 242.711 749.97 241.591 751 240.675C751.389 240.348 751.89 240.183 752.398 240.216C752.905 240.248 753.381 240.475 753.725 240.85C754.716 241.975 755.393 243.342 755.687 244.813C755.981 246.283 755.882 247.805 755.4 249.225C755.4 249.975 755.15 250.675 755.1 251.35C754.146 262.269 751.837 273.027 748.225 283.375C740.5 303.575 740.475 322.425 748.225 340.875C748.775 342.225 749.375 343.675 750 345.15C749.975 345.25 763 380.175 747.725 360.5Z" fill="#2D3837"/>
<path d="M780.5 392.3C781.257 393.007 782.096 393.62 783 394.125C794.725 399.575 799.55 411 794.675 423.025C790.925 432.325 787.175 441.65 784.2 451.2C781.975 458.225 777.625 464.525 777.175 472.1L776.2 473.35C777.625 473.775 776.825 472.5 777.15 472.1C777.975 472.1 778.975 471.95 779.275 471.075C782 463.225 787.35 456.9 791.425 449.825C795.925 442 800.85 434.425 805.525 426.7C807.033 424.119 809.06 421.88 811.479 420.124C813.897 418.368 816.654 417.134 819.575 416.5C824.623 415.278 829.94 415.858 834.605 418.141C839.27 420.423 842.992 424.265 845.125 429C849.475 439.525 845.925 452.35 836.25 456.975C820.9 464.275 805.95 472.5 789.675 477.75C787.425 478.475 786.55 479.85 786.125 482.75C801.375 478.175 816.275 475.5 830.875 471.65C838.825 469.575 846.8 467.65 854.775 471.425C865.2 476.425 869.775 490 864.775 501.05C860.325 510.9 845.875 516.425 835.75 512C821.625 505.825 806.925 501.3 792.55 495.775C791.425 495.35 790.325 494.575 789.2 495.775C789 497.45 790.525 497.7 791.475 498.275C804.35 506.3 817.15 514.4 830.15 522.2C844.525 530.825 846.05 549.7 832.5 559.475C829.997 561.384 827.102 562.715 824.024 563.374C820.946 564.033 817.76 564.003 814.695 563.286C811.629 562.569 808.76 561.183 806.294 559.228C803.827 557.272 801.823 554.796 800.425 551.975C796.175 543.325 792.125 534.475 788.125 525.775C785.1 519.125 782.85 511.825 778.125 505.775C776.45 507.475 777.225 509.025 777.6 510.6C781.05 525.4 784.6 540.15 787.85 554.975C790.025 564.975 787.425 573.15 778.825 579.275C771.8 584.275 761.95 584.275 753.375 578.825C747.25 574.925 743.8 566.125 744.9 558.45C746.325 548.75 751.025 540.2 754.025 530.95C756.525 522.9 759.5 514.95 762.35 506.675C761.684 506.6 761.01 506.724 760.414 507.031C759.818 507.338 759.326 507.814 759 508.4C752.35 519.475 745.95 530.7 739 541.65C734.35 549.15 729.95 556.825 719.75 558.25C714.966 559.093 710.038 558.345 705.719 556.121C701.401 553.898 697.93 550.32 695.837 545.936C693.744 541.553 693.146 536.604 694.132 531.848C695.119 527.092 697.636 522.79 701.3 519.6C705.375 516.05 710.525 514.45 715.325 512.3C728.625 506.275 741.975 500.325 754.9 493.225C753.55 491.475 752.4 492.175 751.225 492.475C734.525 496.7 717.825 500.9 701.025 504.675C697.433 505.557 693.677 505.523 690.101 504.575C686.526 503.627 683.246 501.796 680.563 499.25C677.88 496.704 675.88 493.524 674.746 490.003C673.613 486.483 673.382 482.733 674.075 479.1C676.575 466.125 690.375 457.775 701.825 462.1C716.55 467.675 731.45 472.775 746.325 477.85C748.65 478.65 750.325 481.8 754.075 479.825C741.15 470.925 728 463.025 714.675 455.525C704.15 449.6 697.475 440.35 698.45 430.175C699.2 422.35 707.725 412.675 715 411.225C725.4 409.275 736.3 413.725 740.325 422.225C747.4 437.05 754.15 452.025 761.1 466.925C761.875 468.575 762.05 470.75 764.9 471.925C761.125 455.5 757.4 439.8 753.9 424.05C749.275 403.15 754.225 400 766.6 392.125C771.198 391.253 775.925 391.313 780.5 392.3V392.3ZM756.475 485.625C756.27 487.411 756.438 489.219 756.967 490.937C757.497 492.654 758.377 494.243 759.551 495.603C760.726 496.964 762.17 498.065 763.792 498.839C765.414 499.613 767.179 500.043 768.975 500.1C772.381 499.967 775.621 498.596 778.088 496.244C780.555 493.892 782.079 490.721 782.375 487.325C782.378 483.912 781.065 480.63 778.709 478.162C776.352 475.693 773.134 474.23 769.725 474.075C768.091 473.935 766.445 474.126 764.887 474.635C763.328 475.145 761.887 475.963 760.651 477.04C759.414 478.118 758.408 479.433 757.69 480.908C756.973 482.383 756.56 483.987 756.475 485.625V485.625Z" fill="#F74700"/>
<path d="M770.65 471.25C768.381 471.049 766.095 471.307 763.928 472.009C761.761 472.711 759.758 473.842 758.038 475.336C756.319 476.829 754.917 478.654 753.919 480.701C752.92 482.748 752.344 484.975 752.225 487.25C751.958 489.733 752.209 492.243 752.961 494.624C753.713 497.005 754.95 499.205 756.594 501.084C758.238 502.963 760.254 504.481 762.514 505.542C764.774 506.603 767.229 507.185 769.725 507.25C778.8 507.5 787.775 498.925 788.275 489.525C788.253 484.796 786.409 480.258 783.126 476.854C779.844 473.45 775.375 471.443 770.65 471.25V471.25Z" fill="#2D3837"/>
<path d="M250.675 641.675C250.475 642.875 251.85 632.825 252.675 628.75C249.775 620.05 250.625 611.25 251.375 602.3C251.875 596.35 249.2 595.625 244.6 598.375C244.535 598.439 244.486 598.519 244.458 598.606C244.429 598.693 244.422 598.786 244.437 598.876C244.451 598.967 244.487 599.052 244.542 599.126C244.596 599.2 244.668 599.26 244.75 599.3C244.043 602.371 243.983 605.555 244.575 608.65C244.245 609.16 244.069 609.755 244.069 610.363C244.069 610.97 244.245 611.565 244.575 612.075C243.2 622.325 241.775 632.55 240.375 642.8C237.875 651.075 234.925 659.15 231.8 667.175L232.1 667.3C229.749 672.83 227.712 678.489 226 684.25L220.375 686.75L220.975 685.6C220.4 684.8 218.25 685.8 217.375 685.3C211 689.325 202.725 686.375 195.7 686.15C193.155 685.932 190.591 686.229 188.163 687.023C185.735 687.817 183.491 689.092 181.567 690.772C179.642 692.452 178.075 694.502 176.96 696.8C175.844 699.099 175.203 701.598 175.075 704.15C174.875 706.325 176.025 709.15 173.625 710.425C171.225 711.7 168.925 709.15 167.025 707.7C154.525 695.85 125.6 683.025 119.525 707.075C116.35 718.275 127.725 725.375 133.65 733.1C141.875 755.225 101.675 718.475 96.9001 716.775C75.4251 698.35 35.2251 707.85 47.9001 741.575C50.2501 756.85 79.3001 770.4 74.1251 782.125C66.3501 788.725 39.4251 772.125 26.2001 776.725C12.7501 779.175 7.17515 790.5 13.5001 802.45C31.4001 825.175 20.7501 823.625 4.82514 840.975C-3.74986 849.325 3.17515 864.95 14.8251 865.65C30.5251 869.55 53.2001 850.025 64.3501 866C71.2501 877.425 83.5001 891 96.0751 884.675C106.925 880.65 111.525 873.075 111.075 860.1C111.5 858.375 110.525 855.325 112.275 854.875C124.325 851.7 128.875 866.1 137.125 875.575C145.525 885.425 163.075 882.7 171.025 872.6C170.801 872.625 170.574 872.625 170.35 872.6C170.574 872.625 170.801 872.625 171.025 872.6C178.05 864.175 179.725 852.225 178.775 841.275C174.05 823.775 171.275 794.95 195.575 801.125L203.85 804.525C214.275 813.725 233 811.6 234.85 792.625L235.325 792.5C234.4 777.5 226.325 761.575 213.2 753.25C210.35 751.95 207.6 750.225 207.95 746.75C210.45 737.5 215.95 738.95 218.675 736.225C235.225 719.675 228.975 706.6 231.775 689.025H231.6C231.6 689.025 241.8 664.175 245.8 650.95L250.675 641.675ZM110.675 859.95L110.075 859.725L110.675 859.95Z" fill="#B53A25"/>
<path d="M214.25 708.525C213.425 709.137 212.795 709.976 212.436 710.938C212.076 711.901 212.003 712.947 212.225 713.95C204.55 720.761 197.905 728.652 192.5 737.375C188.75 739.325 186.475 742.925 183.2 745.6C182.317 746.424 181.774 747.547 181.675 748.75C181.076 754.223 181.914 759.757 184.106 764.808C186.298 769.858 189.768 774.25 194.175 777.55C201.35 781.175 203.7 783.225 202.95 784.05C202.275 785.6 199.85 784.9 198.5 784.4C185.825 782.5 176.5 766.775 176 752.525C143.35 780.025 136.9 808.375 158.125 844.7C158.675 848.725 155.425 849.7 152.55 844.95C138.5 823.425 136 798 147.975 777.75C132.72 787.083 119.334 799.172 108.5 813.4C95.1001 830.575 100.275 842.475 96.3501 859.975L97.3751 861.825L93.7251 860.5L94.1501 859.825C87.8751 844.6 94.1501 826.5 102.05 811.475C87.1206 820.318 71.7507 828.395 56.0001 835.675C49.7001 837.2 33.5001 850.675 29.1001 844.75C55.2751 828.875 86.9751 815.95 107.85 800.775C88.8251 806.45 69.0751 802.05 50.6001 798.425C45.6001 797.6 40.1751 798.425 35.6001 795.05C45.1001 787.925 59.1001 794.45 69.7251 795.4C108.7 804.05 128.35 786.425 155.575 762.55C120.275 782.825 90.0251 748.575 64.4001 728.85C63.0501 728.225 61.2251 726.8 62.7751 724.425C75.7001 726.925 85.2751 739.3 95.4251 746.925C119.275 768.35 152.4 766.025 174.075 746.925C174.55 742.975 179.075 744.55 179.775 742.05C180.175 740.75 182.275 738.025 179.375 738.75C158.525 741.25 145.625 726 135.2 706.95C135.035 706.679 134.975 706.357 135.031 706.044C135.087 705.732 135.255 705.45 135.504 705.254C135.753 705.057 136.066 704.958 136.383 704.976C136.7 704.993 137 705.127 137.225 705.35C144.5 711.625 149.725 719.675 157.225 725.775C180.575 744.55 200.3 716.7 208.425 706.325C207.475 707.625 214.25 708.525 214.25 708.525Z" fill="#2D3837"/>
<path d="M265.05 235.375H239.575V436.3H265.05V235.375Z" fill="#A88771"/>
<path d="M366 171.325C355.319 171.371 345.056 167.173 337.47 159.652C329.884 152.132 325.597 141.907 325.55 131.225C325.504 120.543 329.702 110.281 337.223 102.695C344.743 95.1092 354.969 90.8214 365.65 90.775H366C376.63 90.7814 386.826 94.9898 394.366 102.483C401.906 109.976 406.178 120.145 406.25 130.775V130.775C406.323 141.464 402.153 151.745 394.653 159.361C387.154 166.978 376.939 171.308 366.25 171.4L366 171.325ZM366 116.325H365.875C362.143 116.607 358.655 118.292 356.116 121.042C353.576 123.792 352.173 127.402 352.189 131.146C352.205 134.889 353.638 138.487 356.201 141.216C358.764 143.944 362.265 145.6 366 145.85V145.85C367.949 145.83 369.875 145.427 371.668 144.662C373.461 143.897 375.085 142.786 376.448 141.393C377.811 140 378.886 138.352 379.612 136.543C380.337 134.733 380.698 132.799 380.675 130.85C380.629 126.979 379.066 123.281 376.322 120.55C373.578 117.82 369.871 116.276 366 116.25V116.325Z" fill="#A88771"/>
<path d="M264.925 305.5L239.475 304.175C239.775 298.4 247.675 162.175 330.4 134.175L338.5 158.25C304.725 169.675 286.575 208.075 277.275 238.25C270.731 260.152 266.59 282.702 264.925 305.5V305.5Z" fill="#A88771"/>
<path d="M145.375 171.325H145.025C134.334 171.239 124.115 166.911 116.615 159.293C109.114 151.675 104.945 141.391 105.025 130.7H117.75H105.025C105.091 120.068 109.361 109.895 116.902 102.4C124.443 94.906 134.643 90.6997 145.275 90.7H145.625C153.606 90.748 161.393 93.1677 167.995 97.6516C174.598 102.135 179.719 108.481 182.706 115.882C185.694 123.283 186.414 131.405 184.775 139.216C183.135 147.027 179.211 154.175 173.5 159.75C166.015 167.161 155.908 171.32 145.375 171.325ZM145.375 116.325C143.431 116.317 141.505 116.691 139.707 117.428C137.908 118.164 136.272 119.247 134.892 120.616C132.104 123.379 130.529 127.137 130.513 131.062C130.496 134.988 132.039 138.759 134.803 141.546C137.567 144.333 141.325 145.908 145.25 145.925H145.375C149.3 145.925 153.065 144.366 155.84 141.59C158.616 138.815 160.175 135.05 160.175 131.125C160.175 127.2 158.616 123.435 155.84 120.66C153.065 117.884 149.3 116.325 145.375 116.325V116.325Z" fill="#A88771"/>
<path d="M239.575 310.8C238.379 287.624 234.665 264.647 228.5 242.275C219.8 211.5 202.375 172.45 168.775 161.075L176.925 136.95C259.875 165 264.875 304.15 265.025 310.05L239.575 310.8L252.3 310.425L239.575 310.8Z" fill="#A88771"/>
<path d="M262.112 546.633L236.637 546.748L237.382 710.897L262.857 710.781L262.112 546.633Z" fill="#A88771"/>
<path d="M363.875 893.775H363.5C358.211 893.752 352.978 892.688 348.101 890.642C343.223 888.597 338.796 885.611 335.073 881.855C331.349 878.099 328.402 873.646 326.399 868.751C324.396 863.856 323.377 858.614 323.4 853.325C323.423 848.036 324.488 842.803 326.533 837.926C328.578 833.048 331.564 828.621 335.32 824.898C339.076 821.174 343.529 818.227 348.424 816.224C353.319 814.221 358.561 813.202 363.85 813.225H364.2C374.882 813.271 385.107 817.559 392.627 825.145C400.148 832.731 404.346 842.993 404.3 853.675C404.254 864.357 399.966 874.582 392.38 882.102C384.794 889.623 374.532 893.821 363.85 893.775H363.875ZM363.875 838.775C360.959 838.776 358.108 839.638 355.681 841.254C353.253 842.869 351.357 845.165 350.23 847.855C349.103 850.544 348.795 853.506 349.346 856.37C349.897 859.233 351.281 861.871 353.325 863.95C354.682 865.343 356.303 866.451 358.093 867.211C359.882 867.97 361.806 868.366 363.75 868.375C365.698 868.421 367.634 868.067 369.44 867.336C371.245 866.605 372.882 865.512 374.25 864.125C377.044 861.371 378.635 857.623 378.675 853.7H391.4H378.675C378.715 849.766 377.192 845.976 374.441 843.164C371.689 840.352 367.934 838.746 364 838.7L363.875 838.775Z" fill="#A88771"/>
<path d="M329.35 854.025C246.85 826.075 237.05 692.875 236.675 687.225L262.075 685.55L249.375 686.375L262.075 685.55C262.075 686.75 271.025 807.4 337.525 829.9L329.35 854.025Z" fill="#A88771"/>
<path d="M261.6 392.3C262.357 393.007 263.196 393.62 264.1 394.125C275.825 399.575 280.65 411 275.8 423.025C272.025 432.325 268.3 441.65 265.3 451.2C263.1 458.225 258.75 464.525 258.3 472.1L257.325 473.35C258.75 473.775 257.95 472.5 258.275 472.1C259.1 472.1 260.075 471.95 260.4 471.075C263.1 463.225 268.475 456.9 272.525 449.825C277.025 442 281.975 434.425 286.65 426.7C288.15 424.118 290.172 421.878 292.587 420.121C295.002 418.365 297.757 417.132 300.675 416.5C305.723 415.273 311.042 415.851 315.708 418.134C320.375 420.417 324.096 424.261 326.225 429C330.575 439.525 327.05 452.35 317.375 456.975C302.025 464.275 287.05 472.5 270.775 477.75C268.525 478.475 267.675 479.85 267.25 482.75C282.475 478.175 297.25 475.5 312 471.65C319.95 469.575 327.9 467.65 335.875 471.425C346.325 476.425 350.875 490 345.875 501.05C341.425 510.9 326.975 516.425 316.85 512C302.725 505.825 288 501.3 273.65 495.775C272.525 495.35 271.425 494.575 270.275 495.775C270.1 497.45 271.6 497.7 272.55 498.275C285.425 506.3 298.25 514.4 311.25 522.2C325.6 530.825 327.15 549.7 313.6 559.475C311.095 561.384 308.198 562.715 305.118 563.374C302.038 564.033 298.851 564.003 295.783 563.287C292.716 562.57 289.845 561.184 287.376 559.229C284.907 557.273 282.9 554.796 281.5 551.975C277.267 543.325 273.175 534.592 269.225 525.775C266.2 519.125 263.925 511.825 259.225 505.775C257.525 507.475 258.325 509.025 258.675 510.6C262.125 525.4 265.7 540.15 268.95 554.975C271.1 564.975 268.5 573.15 259.9 579.275C252.9 584.275 243.025 584.275 234.475 578.825C228.325 574.925 224.9 566.125 226 558.45C227.4 548.75 232.125 540.2 235.1 530.95C237.6 522.9 240.575 514.95 243.45 506.675C242.784 506.597 242.109 506.719 241.512 507.026C240.915 507.334 240.424 507.812 240.1 508.4C233.45 519.475 227.05 530.7 220.1 541.65C215.45 549.15 211.05 556.825 200.85 558.25C196.064 559.1 191.131 558.358 186.807 556.137C182.484 553.916 179.007 550.338 176.911 545.953C174.814 541.567 174.214 536.615 175.201 531.855C176.188 527.095 178.708 522.791 182.375 519.6C186.475 516.05 191.6 514.45 196.4 512.3C209.725 506.275 223.075 500.325 235.975 493.225C234.65 491.475 233.475 492.175 232.325 492.475C215.625 496.7 198.925 500.9 182.1 504.675C178.509 505.559 174.753 505.526 171.178 504.578C167.603 503.631 164.324 501.799 161.643 499.252C158.961 496.705 156.963 493.524 155.833 490.003C154.703 486.481 154.477 482.732 155.175 479.1C157.675 466.125 171.45 457.775 182.925 462.1C197.65 467.675 212.525 472.775 227.425 477.85C229.75 478.65 231.4 481.8 235.175 479.825C222.225 470.925 209.075 463.025 195.775 455.525C185.175 449.95 178.5 440.7 179.5 430.5C180.225 422.675 188.75 413 196.05 411.55C206.45 409.6 217.325 414.05 221.375 422.55C228.45 437.375 235.2 452.35 242.15 467.25C242.9 468.9 243.1 471.075 245.925 472.25C242.15 455.825 238.425 440.125 234.925 424.375C230.325 403.475 235.275 400.325 247.65 392.45C252.243 391.464 256.987 391.413 261.6 392.3V392.3ZM237.6 485.625C237.395 487.411 237.563 489.219 238.092 490.937C238.622 492.654 239.502 494.243 240.676 495.603C241.851 496.964 243.295 498.065 244.917 498.839C246.539 499.613 248.304 500.043 250.1 500.1C253.503 499.966 256.741 498.594 259.203 496.242C261.666 493.889 263.185 490.718 263.475 487.325C263.479 483.912 262.165 480.63 259.809 478.162C257.452 475.693 254.234 474.23 250.825 474.075C249.192 473.932 247.546 474.12 245.987 474.628C244.428 475.137 242.988 475.955 241.753 477.033C240.518 478.112 239.513 479.429 238.8 480.905C238.086 482.382 237.678 483.987 237.6 485.625V485.625Z" fill="#F74700"/>
<path d="M251.75 471.25C249.483 471.052 247.2 471.313 245.036 472.017C242.872 472.72 240.872 473.852 239.155 475.345C237.438 476.838 236.039 478.662 235.041 480.707C234.044 482.753 233.469 484.978 233.35 487.25C233.083 489.733 233.334 492.243 234.086 494.624C234.838 497.005 236.075 499.205 237.719 501.084C239.363 502.963 241.379 504.481 243.639 505.542C245.899 506.603 248.354 507.185 250.85 507.25C259.95 507.5 268.925 498.925 269.425 489.525C269.397 484.79 267.544 480.248 264.251 476.844C260.959 473.44 256.482 471.437 251.75 471.25Z" fill="#2D3837"/>
</svg>
