<svg width="46" height="52" viewBox="0 0 46 52" fill="none" xmlns="http://www.w3.org/2000/svg">
<path fill-rule="evenodd" clip-rule="evenodd" d="M8.23994 11.853H26.5849C28.1349 11.853 29.4269 13.145 29.4269 14.696C29.4269 16.246 28.1349 17.538 26.5849 17.538H8.23994V11.853ZM8.23994 34.333H30.7189C32.2699 34.333 33.5619 35.625 33.5619 37.175C33.5619 38.726 32.2699 40.018 30.7189 40.018H8.23994V34.333ZM0.939941 51.645V0.290009H19.0269C24.6469 0.290009 29.3629 1.51801 33.3029 4.03701C37.1789 6.49201 40.1509 9.72201 42.0879 13.662C44.0259 17.602 45.0599 21.737 45.0599 26C45.0599 30.328 44.0909 34.462 42.0879 38.338C40.1509 42.278 37.1789 45.444 33.3029 47.963C29.4269 50.418 24.6469 51.71 19.0269 51.71H4.29894C3.32994 51.645 1.00494 51.645 0.939941 51.645ZM8.23994 23.093H20.9649C22.5159 23.093 23.8069 24.385 23.8069 25.935C23.8069 27.486 22.5159 28.778 20.9649 28.778H8.23994V23.093Z" fill="white"/>
</svg>
